<?xml version="1.0" encoding="iso-8859-1"?>
<!-- Generator: Adobe Illustrator 18.0.0, SVG Export Plug-In . SVG Version: 6.00 Build 0)  -->
<!DOCTYPE svg PUBLIC "-//W3C//DTD SVG 1.1//EN" "http://www.w3.org/Graphics/SVG/1.1/DTD/svg11.dtd">
<svg version="1.1" xmlns="http://www.w3.org/2000/svg" xmlns:xlink="http://www.w3.org/1999/xlink" x="0px" y="0px"
	 viewBox="0 0 57 57" style="enable-background:new 0 0 57 57;" xml:space="preserve">
<g>
	<path style="fill:#E6E6E6;" d="M54,34h-5v-6h5c1.654,0,3,1.346,3,3S55.654,34,54,34z M51,32h3c0.552,0,1-0.448,1-1s-0.448-1-1-1h-3
		V32z"/>
	<path style="fill:#E6E6E6;" d="M8,34H3c-1.654,0-3-1.346-3-3s1.346-3,3-3h5V34z M3,30c-0.552,0-1,0.448-1,1s0.448,1,1,1h3v-2H3z"/>
	<path style="fill:#D2D5D7;" d="M31.5,11C29.57,11,28,9.43,28,7.5S29.57,4,31.5,4S35,5.57,35,7.5S33.43,11,31.5,11z M31.5,6
		C30.673,6,30,6.673,30,7.5S30.673,9,31.5,9S33,8.327,33,7.5S32.327,6,31.5,6z"/>
	<path style="fill:#E6E6E6;" d="M43,18c-1.103,0-2-0.897-2-2s0.897-2,2-2s2,0.897,2,2S44.103,18,43,18z M43,15.998V16V15.998z"/>
	<path style="fill:#E6E6E6;" d="M13.009,20H13c-0.845,0-1.653-0.261-2.338-0.754c-0.448-0.323-0.549-0.948-0.227-1.396
		c0.321-0.447,0.948-0.549,1.396-0.227C12.174,17.87,12.577,18,13,18c0.553,0,1.004,0.447,1.004,1S13.562,20,13.009,20z
		 M15.429,18.761c-0.203,0-0.409-0.062-0.586-0.19c-0.447-0.324-0.547-0.949-0.223-1.396C14.869,16.831,15,16.425,15,16
		c0-0.553,0.447-1.019,1-1.019s1,0.43,1,0.982V16c0,0.85-0.263,1.661-0.761,2.348C16.044,18.617,15.738,18.761,15.429,18.761z
		 M10,17.009c-0.553,0-1-0.438-1-0.991V16c0-0.84,0.259-1.645,0.747-2.328c0.322-0.45,0.945-0.554,1.396-0.232
		c0.449,0.321,0.553,0.945,0.231,1.395C11.129,15.177,11,15.58,11,16C11,16.553,10.553,17.009,10,17.009z M14.738,14.555
		c-0.201,0-0.403-0.061-0.58-0.186C13.82,14.128,13.42,14,13,14c-0.553,0-1.013-0.447-1.013-1s0.434-1,0.986-1H13
		c0.838,0,1.641,0.256,2.32,0.74c0.449,0.321,0.554,0.945,0.233,1.396C15.358,14.409,15.051,14.555,14.738,14.555z"/>
	<path style="fill:#E6E6E6;" d="M27.985,23h-4.971l-0.3-0.396C22.247,21.986,22,21.259,22,20.5c0-1.93,1.57-3.5,3.5-3.5
		s3.5,1.57,3.5,3.5c0,0.759-0.247,1.486-0.715,2.104L27.985,23z M24.09,21h2.82c0.053-0.144,0.09-0.312,0.09-0.5
		c0-0.827-0.673-1.5-1.5-1.5S24,19.673,24,20.5C24,20.688,24.037,20.856,24.09,21z"/>
	<path style="fill:#D2D5D7;" d="M51.684,22H5.316c-0.572,0-0.925,0.627-0.631,1.12l1.631,2.733C6.764,26.604,7,27.462,7,28.336
		v12.462C7,43.671,9.316,46,12.172,46h2.075c-0.641-1.309-0.081-2.142,2.378-4c1.494,1.977,2.483,3.05,2.61,4h7.624
		c-3.142-4.069-3.508-5.015,1.765-9c3.747,4.96,5.443,6.248,2.729,9h6.641c-0.641-1.309-0.081-2.142,2.378-4
		c1.494,1.977,2.483,3.05,2.61,4h1.843C47.684,46,50,43.671,50,40.799V28.336c0-0.875,0.236-1.733,0.684-2.482l1.631-2.734
		C52.609,22.627,52.256,22,51.684,22z"/>
	<path style="fill:#E6E6E6;" d="M41,53H15c-0.553,0-1-0.447-1-1s0.447-1,1-1h26c0.553,0,1,0.447,1,1S41.553,53,41,53z"/>
	<path style="fill:#FFFFFF;" d="M46,28H20.074c-0.553,0-1-0.447-1-1s0.447-1,1-1H46c0.553,0,1,0.447,1,1S46.553,28,46,28z"/>
	<g>
		<g>
			<path style="fill:#EF771D;" d="M16.626,49.294c3.969-2.999,2.999-3.325,0-7.294C12.656,44.999,13.627,45.325,16.626,49.294z"/>
			<path style="fill:#EF771D;" d="M16.431,50.694l-0.603-0.798c-0.304-0.401-0.587-0.767-0.846-1.1
				c-1.329-1.712-2.132-2.746-1.961-4.031c0.16-1.211,1.179-2.187,3.002-3.563l0.798-0.603l0.603,0.798
				c0.304,0.402,0.587,0.767,0.846,1.1c1.329,1.713,2.131,2.746,1.96,4.031c-0.16,1.211-1.179,2.187-3.001,3.563L16.431,50.694z
				 M16.445,43.408c-0.739,0.601-1.388,1.219-1.441,1.62c-0.061,0.457,0.619,1.331,1.559,2.542c0.079,0.103,0.16,0.207,0.244,0.315
				c0.738-0.601,1.388-1.219,1.44-1.62c0.061-0.457-0.618-1.331-1.558-2.542C16.61,43.621,16.528,43.517,16.445,43.408z"/>
		</g>
		<g>
			<path style="fill:#F9DA49;" d="M28.626,48.294c6.146-4.643,4.643-5.148,0-11.294C22.48,41.643,23.982,42.148,28.626,48.294z"/>
			<path style="fill:#F9DA49;" d="M28.431,49.694l-0.603-0.798c-0.472-0.625-0.912-1.19-1.313-1.709
				c-1.971-2.538-3.16-4.07-2.926-5.833c0.223-1.684,1.73-3.109,4.435-5.152l0.798-0.603l0.603,0.798
				c0.473,0.625,0.912,1.191,1.313,1.709c1.97,2.538,3.159,4.07,2.926,5.833c-0.224,1.684-1.73,3.109-4.435,5.152L28.431,49.694z
				 M28.439,38.404c-1.664,1.306-2.756,2.366-2.868,3.213c-0.124,0.934,0.872,2.218,2.523,4.345
				c0.228,0.293,0.467,0.602,0.718,0.928c1.663-1.306,2.755-2.366,2.867-3.213c0.124-0.934-0.872-2.218-2.522-4.344
				C28.93,39.039,28.69,38.73,28.439,38.404z"/>
		</g>
		<g>
			<path style="fill:#EF771D;" d="M40.374,42c-3.969,2.999-2.999,3.325,0,7.294C44.344,46.295,43.373,45.969,40.374,42z"/>
			<path style="fill:#EF771D;" d="M40.179,50.694l-0.603-0.798c-0.304-0.402-0.587-0.767-0.846-1.1
				c-1.329-1.713-2.131-2.746-1.96-4.031c0.16-1.211,1.179-2.187,3.001-3.563l0.798-0.603l0.603,0.798
				c0.304,0.401,0.587,0.767,0.846,1.1c1.329,1.712,2.132,2.746,1.961,4.031c-0.16,1.211-1.179,2.187-3.002,3.563L40.179,50.694z
				 M40.193,43.408c-0.738,0.601-1.388,1.219-1.44,1.62c-0.061,0.457,0.618,1.331,1.558,2.542c0.079,0.103,0.161,0.207,0.244,0.315
				c0.739-0.601,1.388-1.219,1.441-1.62c0.061-0.457-0.619-1.331-1.559-2.542C40.358,43.621,40.277,43.517,40.193,43.408z"/>
		</g>
	</g>
	<path style="fill:#FFFFFF;" d="M15.827,28H11c-0.553,0-1-0.447-1-1s0.447-1,1-1h4.827c0.553,0,1,0.447,1,1S16.38,28,15.827,28z"/>
</g>
<g>
</g>
<g>
</g>
<g>
</g>
<g>
</g>
<g>
</g>
<g>
</g>
<g>
</g>
<g>
</g>
<g>
</g>
<g>
</g>
<g>
</g>
<g>
</g>
<g>
</g>
<g>
</g>
<g>
</g>
</svg>
